<svg width="1100" height="840" viewBox="0 0 1100 840" fill="none" xmlns="http://www.w3.org/2000/svg">
<mask id="mask0" mask-type="alpha" maskUnits="userSpaceOnUse" x="0" y="0" width="1100" height="840">
<path d="M0 0H1100V240C1100 571.371 831.371 840 500 840H0V0Z" fill="#1C57C9"/>
</mask>
<g mask="url(#mask0)">
<path d="M0 0H1100V240C1100 571.371 831.371 840 500 840H0V0Z" fill="#1C57C9"/>
<circle opacity="0.1" cx="1173.46" cy="73.1049" r="372.957" stroke="white"/>
<g opacity="0.4">
<circle cx="2.09302" cy="839.768" r="2.09302" transform="rotate(-90 2.09302 839.768)" fill="white"/>
<circle cx="20.2325" cy="839.768" r="2.09302" transform="rotate(-90 20.2325 839.768)" fill="white"/>
<circle cx="38.3721" cy="839.768" r="2.09302" transform="rotate(-90 38.3721 839.768)" fill="white"/>
<circle cx="56.5116" cy="839.768" r="2.09302" transform="rotate(-90 56.5116 839.768)" fill="white"/>
<circle cx="74.6511" cy="839.768" r="2.09302" transform="rotate(-90 74.6511 839.768)" fill="white"/>
<circle cx="92.7907" cy="839.768" r="2.09302" transform="rotate(-90 92.7907 839.768)" fill="white"/>
<circle cx="110.93" cy="839.768" r="2.09302" transform="rotate(-90 110.93 839.768)" fill="white"/>
<circle cx="129.07" cy="839.768" r="2.09302" transform="rotate(-90 129.07 839.768)" fill="white"/>
<circle cx="147.209" cy="839.768" r="2.09302" transform="rotate(-90 147.209 839.768)" fill="white"/>
<circle cx="165.349" cy="839.768" r="2.09302" transform="rotate(-90 165.349 839.768)" fill="white"/>
<circle cx="183.488" cy="839.768" r="2.09302" transform="rotate(-90 183.488 839.768)" fill="white"/>
<circle cx="201.628" cy="839.768" r="2.09302" transform="rotate(-90 201.628 839.768)" fill="white"/>
<circle cx="219.767" cy="839.768" r="2.09302" transform="rotate(-90 219.767 839.768)" fill="white"/>
<circle cx="237.907" cy="839.768" r="2.09302" transform="rotate(-90 237.907 839.768)" fill="white"/>
<circle cx="2.09302" cy="821.628" r="2.09302" transform="rotate(-90 2.09302 821.628)" fill="white"/>
<circle cx="20.2325" cy="821.628" r="2.09302" transform="rotate(-90 20.2325 821.628)" fill="white"/>
<circle cx="38.3721" cy="821.628" r="2.09302" transform="rotate(-90 38.3721 821.628)" fill="white"/>
<circle cx="56.5116" cy="821.628" r="2.09302" transform="rotate(-90 56.5116 821.628)" fill="white"/>
<circle cx="74.6511" cy="821.628" r="2.09302" transform="rotate(-90 74.6511 821.628)" fill="white"/>
<circle cx="92.7907" cy="821.628" r="2.09302" transform="rotate(-90 92.7907 821.628)" fill="white"/>
<circle cx="110.93" cy="821.628" r="2.09302" transform="rotate(-90 110.93 821.628)" fill="white"/>
<circle cx="129.07" cy="821.628" r="2.09302" transform="rotate(-90 129.07 821.628)" fill="white"/>
<circle cx="147.209" cy="821.628" r="2.09302" transform="rotate(-90 147.209 821.628)" fill="white"/>
<circle cx="165.349" cy="821.628" r="2.09302" transform="rotate(-90 165.349 821.628)" fill="white"/>
<circle cx="183.488" cy="821.628" r="2.09302" transform="rotate(-90 183.488 821.628)" fill="white"/>
<circle cx="201.628" cy="821.628" r="2.09302" transform="rotate(-90 201.628 821.628)" fill="white"/>
<circle cx="219.767" cy="821.628" r="2.09302" transform="rotate(-90 219.767 821.628)" fill="white"/>
<circle cx="237.907" cy="821.628" r="2.09302" transform="rotate(-90 237.907 821.628)" fill="white"/>
<circle cx="2.09302" cy="803.488" r="2.09302" transform="rotate(-90 2.09302 803.488)" fill="white"/>
<circle cx="20.2325" cy="803.488" r="2.09302" transform="rotate(-90 20.2325 803.488)" fill="white"/>
<circle cx="38.3721" cy="803.488" r="2.09302" transform="rotate(-90 38.3721 803.488)" fill="white"/>
<circle cx="56.5116" cy="803.488" r="2.09302" transform="rotate(-90 56.5116 803.488)" fill="white"/>
<circle cx="74.6511" cy="803.488" r="2.09302" transform="rotate(-90 74.6511 803.488)" fill="white"/>
<circle cx="92.7907" cy="803.488" r="2.09302" transform="rotate(-90 92.7907 803.488)" fill="white"/>
<circle cx="110.93" cy="803.488" r="2.09302" transform="rotate(-90 110.93 803.488)" fill="white"/>
<circle cx="129.07" cy="803.488" r="2.09302" transform="rotate(-90 129.07 803.488)" fill="white"/>
<circle cx="147.209" cy="803.488" r="2.09302" transform="rotate(-90 147.209 803.488)" fill="white"/>
<circle cx="165.349" cy="803.488" r="2.09302" transform="rotate(-90 165.349 803.488)" fill="white"/>
<circle cx="183.488" cy="803.488" r="2.09302" transform="rotate(-90 183.488 803.488)" fill="white"/>
<circle cx="201.628" cy="803.488" r="2.09302" transform="rotate(-90 201.628 803.488)" fill="white"/>
<circle cx="219.767" cy="803.488" r="2.09302" transform="rotate(-90 219.767 803.488)" fill="white"/>
<circle cx="237.907" cy="803.488" r="2.09302" transform="rotate(-90 237.907 803.488)" fill="white"/>
<circle cx="2.09302" cy="785.349" r="2.09302" transform="rotate(-90 2.09302 785.349)" fill="white"/>
<circle cx="20.2325" cy="785.349" r="2.09302" transform="rotate(-90 20.2325 785.349)" fill="white"/>
<circle cx="38.3721" cy="785.349" r="2.09302" transform="rotate(-90 38.3721 785.349)" fill="white"/>
<circle cx="56.5116" cy="785.349" r="2.09302" transform="rotate(-90 56.5116 785.349)" fill="white"/>
<circle cx="74.6511" cy="785.349" r="2.09302" transform="rotate(-90 74.6511 785.349)" fill="white"/>
<circle cx="92.7907" cy="785.349" r="2.09302" transform="rotate(-90 92.7907 785.349)" fill="white"/>
<circle cx="110.93" cy="785.349" r="2.09302" transform="rotate(-90 110.93 785.349)" fill="white"/>
<circle cx="129.07" cy="785.349" r="2.09302" transform="rotate(-90 129.07 785.349)" fill="white"/>
<circle cx="147.209" cy="785.349" r="2.09302" transform="rotate(-90 147.209 785.349)" fill="white"/>
<circle cx="165.349" cy="785.349" r="2.09302" transform="rotate(-90 165.349 785.349)" fill="white"/>
<circle cx="183.488" cy="785.349" r="2.09302" transform="rotate(-90 183.488 785.349)" fill="white"/>
<circle cx="201.628" cy="785.349" r="2.09302" transform="rotate(-90 201.628 785.349)" fill="white"/>
<circle cx="219.767" cy="785.349" r="2.09302" transform="rotate(-90 219.767 785.349)" fill="white"/>
<circle cx="237.907" cy="785.349" r="2.09302" transform="rotate(-90 237.907 785.349)" fill="white"/>
<circle cx="2.09302" cy="767.209" r="2.09302" transform="rotate(-90 2.09302 767.209)" fill="white"/>
<circle cx="20.2325" cy="767.209" r="2.09302" transform="rotate(-90 20.2325 767.209)" fill="white"/>
<circle cx="38.3721" cy="767.209" r="2.09302" transform="rotate(-90 38.3721 767.209)" fill="white"/>
<circle cx="56.5116" cy="767.209" r="2.09302" transform="rotate(-90 56.5116 767.209)" fill="white"/>
<circle cx="74.6511" cy="767.209" r="2.09302" transform="rotate(-90 74.6511 767.209)" fill="white"/>
<circle cx="92.7907" cy="767.209" r="2.09302" transform="rotate(-90 92.7907 767.209)" fill="white"/>
<circle cx="110.93" cy="767.209" r="2.09302" transform="rotate(-90 110.93 767.209)" fill="white"/>
<circle cx="129.07" cy="767.209" r="2.09302" transform="rotate(-90 129.07 767.209)" fill="white"/>
<circle cx="147.209" cy="767.209" r="2.09302" transform="rotate(-90 147.209 767.209)" fill="white"/>
<circle cx="165.349" cy="767.209" r="2.09302" transform="rotate(-90 165.349 767.209)" fill="white"/>
<circle cx="183.488" cy="767.209" r="2.09302" transform="rotate(-90 183.488 767.209)" fill="white"/>
<circle cx="201.628" cy="767.209" r="2.09302" transform="rotate(-90 201.628 767.209)" fill="white"/>
<circle cx="219.767" cy="767.209" r="2.09302" transform="rotate(-90 219.767 767.209)" fill="white"/>
<circle cx="237.907" cy="767.209" r="2.09302" transform="rotate(-90 237.907 767.209)" fill="white"/>
<circle cx="2.09302" cy="749.07" r="2.09302" transform="rotate(-90 2.09302 749.07)" fill="white"/>
<circle cx="20.2325" cy="749.07" r="2.09302" transform="rotate(-90 20.2325 749.07)" fill="white"/>
<circle cx="38.3721" cy="749.07" r="2.09302" transform="rotate(-90 38.3721 749.07)" fill="white"/>
<circle cx="56.5116" cy="749.07" r="2.09302" transform="rotate(-90 56.5116 749.07)" fill="white"/>
<circle cx="74.6511" cy="749.07" r="2.09302" transform="rotate(-90 74.6511 749.07)" fill="white"/>
<circle cx="92.7907" cy="749.07" r="2.09302" transform="rotate(-90 92.7907 749.07)" fill="white"/>
<circle cx="110.93" cy="749.07" r="2.09302" transform="rotate(-90 110.93 749.07)" fill="white"/>
<circle cx="129.07" cy="749.07" r="2.09302" transform="rotate(-90 129.07 749.07)" fill="white"/>
<circle cx="147.209" cy="749.07" r="2.09302" transform="rotate(-90 147.209 749.07)" fill="white"/>
<circle cx="165.349" cy="749.07" r="2.09302" transform="rotate(-90 165.349 749.07)" fill="white"/>
<circle cx="183.488" cy="749.07" r="2.09302" transform="rotate(-90 183.488 749.07)" fill="white"/>
<circle cx="201.628" cy="749.07" r="2.09302" transform="rotate(-90 201.628 749.07)" fill="white"/>
<circle cx="219.767" cy="749.07" r="2.09302" transform="rotate(-90 219.767 749.07)" fill="white"/>
<circle cx="237.907" cy="749.07" r="2.09302" transform="rotate(-90 237.907 749.07)" fill="white"/>
<circle cx="2.09302" cy="730.93" r="2.09302" transform="rotate(-90 2.09302 730.93)" fill="white"/>
<circle cx="20.2325" cy="730.93" r="2.09302" transform="rotate(-90 20.2325 730.93)" fill="white"/>
<circle cx="38.3721" cy="730.93" r="2.09302" transform="rotate(-90 38.3721 730.93)" fill="white"/>
<circle cx="56.5116" cy="730.93" r="2.09302" transform="rotate(-90 56.5116 730.93)" fill="white"/>
<circle cx="74.6511" cy="730.93" r="2.09302" transform="rotate(-90 74.6511 730.93)" fill="white"/>
<circle cx="92.7907" cy="730.93" r="2.09302" transform="rotate(-90 92.7907 730.93)" fill="white"/>
<circle cx="110.93" cy="730.93" r="2.09302" transform="rotate(-90 110.93 730.93)" fill="white"/>
<circle cx="129.07" cy="730.93" r="2.09302" transform="rotate(-90 129.07 730.93)" fill="white"/>
<circle cx="147.209" cy="730.93" r="2.09302" transform="rotate(-90 147.209 730.93)" fill="white"/>
<circle cx="165.349" cy="730.93" r="2.09302" transform="rotate(-90 165.349 730.93)" fill="white"/>
<circle cx="183.488" cy="730.93" r="2.09302" transform="rotate(-90 183.488 730.93)" fill="white"/>
<circle cx="201.628" cy="730.93" r="2.09302" transform="rotate(-90 201.628 730.93)" fill="white"/>
<circle cx="219.767" cy="730.93" r="2.09302" transform="rotate(-90 219.767 730.93)" fill="white"/>
<circle cx="237.907" cy="730.93" r="2.09302" transform="rotate(-90 237.907 730.93)" fill="white"/>
<circle cx="2.09302" cy="712.791" r="2.09302" transform="rotate(-90 2.09302 712.791)" fill="white"/>
<circle cx="20.2325" cy="712.791" r="2.09302" transform="rotate(-90 20.2325 712.791)" fill="white"/>
<circle cx="38.3721" cy="712.791" r="2.09302" transform="rotate(-90 38.3721 712.791)" fill="white"/>
<circle cx="56.5116" cy="712.791" r="2.09302" transform="rotate(-90 56.5116 712.791)" fill="white"/>
<circle cx="74.6511" cy="712.791" r="2.09302" transform="rotate(-90 74.6511 712.791)" fill="white"/>
<circle cx="92.7907" cy="712.791" r="2.09302" transform="rotate(-90 92.7907 712.791)" fill="white"/>
<circle cx="110.93" cy="712.791" r="2.09302" transform="rotate(-90 110.93 712.791)" fill="white"/>
<circle cx="129.07" cy="712.791" r="2.09302" transform="rotate(-90 129.07 712.791)" fill="white"/>
<circle cx="147.209" cy="712.791" r="2.09302" transform="rotate(-90 147.209 712.791)" fill="white"/>
<circle cx="165.349" cy="712.791" r="2.09302" transform="rotate(-90 165.349 712.791)" fill="white"/>
<circle cx="183.488" cy="712.791" r="2.09302" transform="rotate(-90 183.488 712.791)" fill="white"/>
<circle cx="201.628" cy="712.791" r="2.09302" transform="rotate(-90 201.628 712.791)" fill="white"/>
<circle cx="219.767" cy="712.791" r="2.09302" transform="rotate(-90 219.767 712.791)" fill="white"/>
<circle cx="237.907" cy="712.791" r="2.09302" transform="rotate(-90 237.907 712.791)" fill="white"/>
<circle cx="2.09302" cy="694.651" r="2.09302" transform="rotate(-90 2.09302 694.651)" fill="white"/>
<circle cx="20.2325" cy="694.651" r="2.09302" transform="rotate(-90 20.2325 694.651)" fill="white"/>
<circle cx="38.3721" cy="694.651" r="2.09302" transform="rotate(-90 38.3721 694.651)" fill="white"/>
<circle cx="56.5116" cy="694.651" r="2.09302" transform="rotate(-90 56.5116 694.651)" fill="white"/>
<circle cx="74.6511" cy="694.651" r="2.09302" transform="rotate(-90 74.6511 694.651)" fill="white"/>
<circle cx="92.7907" cy="694.651" r="2.09302" transform="rotate(-90 92.7907 694.651)" fill="white"/>
<circle cx="110.93" cy="694.651" r="2.09302" transform="rotate(-90 110.93 694.651)" fill="white"/>
<circle cx="129.07" cy="694.651" r="2.09302" transform="rotate(-90 129.07 694.651)" fill="white"/>
<circle cx="147.209" cy="694.651" r="2.09302" transform="rotate(-90 147.209 694.651)" fill="white"/>
<circle cx="165.349" cy="694.651" r="2.09302" transform="rotate(-90 165.349 694.651)" fill="white"/>
<circle cx="183.488" cy="694.651" r="2.09302" transform="rotate(-90 183.488 694.651)" fill="white"/>
<circle cx="201.628" cy="694.651" r="2.09302" transform="rotate(-90 201.628 694.651)" fill="white"/>
<circle cx="219.767" cy="694.651" r="2.09302" transform="rotate(-90 219.767 694.651)" fill="white"/>
<circle cx="237.907" cy="694.651" r="2.09302" transform="rotate(-90 237.907 694.651)" fill="white"/>
</g>
</g>
</svg>
